<?xml version="1.0" encoding="utf-8"?>
<!-- Generator: Adobe Illustrator 24.0.1, SVG Export Plug-In . SVG Version: 6.00 Build 0)  -->
<svg version="1.1" id="Ebene_1" xmlns="http://www.w3.org/2000/svg" xmlns:xlink="http://www.w3.org/1999/xlink" x="0px" y="0px"
	 viewBox="0 0 106.9 26.6" style="enable-background:new 0 0 106.9 26.6;" xml:space="preserve">
<style type="text/css">
	.st0{fill:#B4D3B9;}
	.st1{fill:#ADCEB2;}
	.st2{fill:#87AD8F;}
	.st3{fill:#ACCDB3;}
	.st4{fill:#8AB192;}
	.st5{fill:#92B99B;}
	.st6{fill:#A6C8AB;}
	.st7{fill:#B9D6BE;}
	.st8{fill:#8FB597;}
	.st9{fill:#B8D4BD;}
	.st10{fill:#AFCEB3;}
	.st11{fill:#8EB597;}
	.st12{fill:#A7C9AD;}
	.st13{fill:#A0C3A6;}
	.st14{fill:#9FC4A5;}
	.st15{fill:#9EC1A6;}
	.st16{fill:#7BA383;}
	.st17{fill:#C0DAC5;}
	.st18{fill:#95BC9C;}
	.st19{fill:#A9CBAE;}
	.st20{fill:#8FB497;}
	.st21{fill:#99BEA1;}
	.st22{fill:#98BE9F;}
	.st23{fill:#C5DCC9;}
	.st24{fill:#7DA686;}
	.st25{fill:#97BC9C;}
	.st26{fill:#A7C9AE;}
	.st27{fill:#CDE1D0;}
	.st28{fill:#D1E3D4;}
	.st29{fill:#DDEBE1;}
	.st30{fill:#7DA285;}
	.st31{fill:#719679;}
	.st32{fill:#B6D4BC;}
	.st33{fill:#A9CAB0;}
	.st34{fill:#9FC2A4;}
	.st35{fill:#90B699;}
	.st36{fill:#7B9F83;}
	.st37{fill:#A6C7AB;}
	.st38{fill:#B3D2B8;}
	.st39{fill:#91B799;}
	.st40{fill:#A3C3A8;}
	.st41{fill:#749779;}
	.st42{fill:#749578;}
	.st43{fill:#7EA186;}
	.st44{fill:#80A688;}
	.st45{fill:#85A286;}
	.st46{fill:#DDEBDF;}
	.st47{fill:#6F9478;}
	.st48{fill:#80A285;}
	.st49{fill:#8AA58C;}
	.st50{fill:#8FAE90;}
	.st51{fill:#92B797;}
	.st52{fill:#7BA185;}
	.st53{fill:#E0E8E2;}
	.st54{fill:#93B899;}
	.st55{fill:#6A9272;}
	.st56{fill:#7EA787;}
	.st57{fill:#9BBCA0;}
	.st58{fill:#739A7B;}
	.st59{fill:#638D6D;}
	.st60{fill:#D5DED6;}
	.st61{fill:#6A9173;}
	.st62{fill:#9CC0A1;}
	.st63{fill:#99BC9F;}
	.st64{fill:#68896E;}
	.st65{fill:#91B99A;}
	.st66{fill:#69886C;}
	.st67{fill:#8DB692;}
	.st68{fill:#A0C4A7;}
	.st69{fill:#C0D4C9;}
	.st70{fill:#8DB591;}
	.st71{fill:#98BC9C;}
	.st72{fill:#78A27F;}
	.st73{fill:#77A17F;}
	.st74{fill:#88B091;}
	.st75{fill:#7CA583;}
	.st76{fill:#6F9A77;}
	.st77{fill:#AECEB3;}
	.st78{enable-background:new    ;}
	.st79{fill:#FFFFFF;stroke:#FFFFFF;stroke-width:0.25;stroke-miterlimit:10;}
</style>
<g>
	<g>
		<g>
			<path class="st0" d="M57.8,22.5c0.3-0.2,0.3-0.5,0.4-0.7c0-0.1,0-0.2,0-0.3c-0.1-0.2-0.3-0.2-0.7-0.2c-0.2,0-0.3,0.1-0.5,0.1
				c-0.2,0.1-0.4,0.2-0.5,0.3c-0.3,0.2-0.7,0.4-1,0.6c0,0-0.1,0-0.2,0c-0.1,0.1-0.2,0.1-0.3,0.2c0.1,0,0.1,0,0.2,0.1
				c0.2-0.1,0.3-0.2,0.4-0.2c0.3-0.1,0.6-0.1,0.8,0.1c0.1,0,0.1,0.1,0.2,0.1c0.1,0,0.1,0,0.2-0.1c0.2,0,0.3,0,0.5,0.1
				c0.1,0,0.3,0,0.5,0l0,0C57.6,22.4,57.6,22.4,57.8,22.5z"/>
		</g>
	</g>
	<g>
		<g>
			<path class="st1" d="M45,23.4c-0.3-0.1-0.6-0.1-0.9-0.2c0.2-0.1,0-0.1,0.1-0.2c0.4,0.1,0.8,0,1.2-0.1c0.2-0.1,0.5-0.2,0.7-0.3
				c0.2,0.1,0.3,0,0.4-0.1c0.1,0,0.3-0.1,0.4-0.1l0,0c0,0.1,0.1,0.1,0.1,0.2c0.2-0.2,0.3-0.3,0.4-0.4h0.1v0.1l-0.1,0.1
				c-0.2,0.1-0.2,0.2-0.1,0.3c0.1,0.1,0.3,0.1,0.4,0.1c0,0.1,0.1,0.2,0.4,0.2c0.1,0,0.2,0,0.3,0l0,0c0,0,0,0.1-0.1,0.1s-0.2,0-0.3,0
				c-0.3-0.1-0.5,0.1-0.7,0.1c0.1,0,0.2,0,0.3,0c-0.1,0-0.2,0-0.3,0c-0.5,0-1.1,0.1-1.6,0.1c0.1,0,0.1,0,0.2,0.1
				c0,0.1,0.2,0.1,0.3,0.1s0.3,0,0.5,0.1c-0.1,0.1-0.2,0.1-0.3,0.1c-0.2,0-0.3-0.1-0.5,0c-0.1,0-0.1,0-0.2,0
				C45.6,23.4,45.4,23.3,45,23.4z M45.2,23.2L45.2,23.2L45.2,23.2L45.2,23.2L45.2,23.2z"/>
		</g>
	</g>
	<g>
		<g>
			<path class="st2" d="M50.9,23.7c0.1,0,0.2,0,0.3-0.1c0,0,0,0-0.1,0s-0.1-0.1-0.2-0.1c0.1,0,0.1-0.1,0.2-0.1
				c0.2,0,0.3-0.1,0.5-0.1c0.1,0,0.2-0.1,0.2-0.1c0-0.1-0.1-0.2-0.1-0.3c-0.1,0-0.1,0-0.2,0.1c-0.1,0.1-0.3,0.1-0.6,0.1
				c-0.2,0.1-0.3,0.2-0.5,0.2v0.1c-0.3,0.2-0.6,0.3-1.4,0.3c0.1,0,0.1,0,0.2,0c-0.7-0.1-1.4-0.1-2.1-0.2c-0.1,0-0.1,0-0.2,0H47
				c0.1,0,0.1,0,0.2,0.1c-0.3,0.1-0.3,0.3-0.1,0.4c0.3,0.1,0.3,0.3,0.3,0.5c0.2-0.1,0.1-0.2,0.1-0.3c0-0.2,0-0.3,0-0.5h0.1
				c0,0.1,0,0.3,0.1,0.4c0,0.1,0,0.1,0.2,0.1c0-0.1,0-0.2,0-0.3c0.4,0.1,0.7,0.2,0.8,0.4c0.1,0,0.2-0.1,0.2-0.1h-0.1
				c0,0-0.1,0-0.1-0.1c-0.2-0.1-0.3-0.2-0.5-0.3c0.4,0,0.7,0,1,0.1c0.4,0,0.9,0,1.2,0.1c0.4,0.1,0.6,0.3,0.9,0.4
				c0-0.1-0.1-0.1-0.1-0.2c0.1,0,0.1-0.1,0.2-0.1l0,0l0,0c-0.1,0-0.1,0-0.2,0c0.1-0.1-0.1-0.1-0.2-0.2h-0.1c-0.1,0-0.2,0-0.3,0.1
				l0,0C50.8,23.8,50.8,23.8,50.9,23.7c-0.1,0.1-0.1,0-0.2,0l0,0C50.8,23.7,50.9,23.7,50.9,23.7z"/>
		</g>
	</g>
	<g>
		<g>
			<path class="st3" d="M56.7,26.1c0.4,0.1,0.8,0.1,1.2,0.1c0.3,0,0.4-0.2,0.3-0.3c-0.1,0-0.2-0.1-0.2-0.1c-0.1,0-0.2,0-0.3,0
				c-0.2,0-0.4-0.1-0.5-0.1c-0.2-0.1-0.4-0.2-0.5-0.3c0-0.1-0.1-0.1-0.1-0.2c-0.1,0.1-0.1,0.1-0.2,0.1c-0.1-0.1-0.2-0.1-0.3-0.2
				c-0.3,0-0.5,0.1-0.5,0.2c0,0.2,0.1,0.3,0.1,0.5c0.1,0.1,0.3,0.1,0.4,0.2h0.1C56.3,26,56.5,26,56.7,26.1z"/>
		</g>
	</g>
	<g>
		<g>
			<path class="st4" d="M57.6,23.8c0.1,0,0.3,0,0.4,0c-0.1,0-0.1,0-0.2,0l0,0c0.2,0,0.3,0,0.5,0c0.2,0.1,0.3,0.2,0.5,0.4
				c0.3,0.1,0.7,0.2,1.1,0.3c0-0.1,0-0.2-0.1-0.2c-0.1-0.1,0-0.2,0.2-0.2c0.1,0,0.1,0,0.2-0.1c0-0.1,0.1-0.2,0-0.2
				c-0.2,0-0.4,0-0.5,0c-0.4,0-0.4,0-0.4-0.2h-0.1h-0.1l0,0c0,0,0,0,0,0.1c0,0,0,0-0.1,0l-0.1-0.1c0-0.1-0.3-0.1-0.5-0.2
				c-0.1,0.1-0.2,0.1-0.2,0.2c0,0,0-0.1-0.1-0.1L58,23.6C57.9,23.7,57.8,23.8,57.6,23.8c-0.1,0-0.1,0.1-0.2,0.1
				C57.4,23.7,57.5,23.7,57.6,23.8z"/>
		</g>
	</g>
	<g>
		<g>
			<path class="st5" d="M53,24.1c-0.3,0-0.5,0-0.8,0c-0.2,0-0.3,0-0.5,0c-0.1,0-0.1,0-0.2,0l0,0c0.2,0,0.3,0,0.6,0.1
				c-0.1,0.1,0.1,0.2,0.4,0.2c0,0.1-0.1,0.1-0.1,0.2c0.4,0,0.3,0.2,0.4,0.3c0.2,0,0.3,0.1,0.4,0.1c0-0.1,0.1-0.2,0.2-0.2
				c0.1,0.1,0.1,0.2,0.1,0.3l0.1,0.1c0-0.2,0-0.2,0.4-0.3h0.1c0.1-0.2,0.4-0.2,0.7-0.2c0,0,0-0.1,0.1-0.1v-0.1c-0.1,0-0.1,0-0.2,0
				c-0.1,0-0.1,0-0.2,0C53.9,24.3,53.5,24.2,53,24.1C53,24.2,53,24.1,53,24.1z"/>
		</g>
	</g>
	<g>
		<g>
			<path class="st6" d="M46.9,22.4c0,0.1,0.1,0.1,0.1,0.2c0.2-0.2,0.3-0.3,0.4-0.4h0.1v0.1c0.1,0,0.1-0.1,0.2-0.1
				c0.1,0,0.1,0,0.2-0.1c0-0.1,0-0.2,0.1-0.2c0.2-0.1,0.5-0.2,0.7-0.2c0.5,0,0.6,0.2,0.5,0.4c0.1,0,0.2,0,0.2,0
				c0.1,0,0.1,0.1,0.2,0.1c0.1-0.1,0.1-0.1,0.2-0.2c0.1,0.1,0.1,0.2,0.2,0.2c0,0.1,0,0.1,0,0.2c0.2-0.2,0.3-0.4,0.4-0.6
				c0.1-0.1,0-0.3,0-0.4c0,0-0.1-0.1-0.2-0.1c0,0,0,0.1,0.1,0.1c0,0.1,0,0.2,0,0.3c0,0-0.1,0.1-0.2,0.1c-0.1-0.2-0.1-0.3-0.2-0.4
				c0,0,0.2,0,0.1-0.1c-1.4,0.3-2.7,0.8-3.9,1.3c0.2,0.1,0.3,0,0.4-0.1C46.7,22.5,46.8,22.4,46.9,22.4L46.9,22.4L46.9,22.4z"/>
		</g>
	</g>
	<g>
		<g>
			<path class="st7" d="M63.4,23.1c0.6-0.1,1.1-0.3,1.5-0.5c-0.1,0-0.2,0-0.4,0.1c0-0.2,0.5-0.3,0.4-0.5s-0.1-0.3-0.2-0.6
				c-0.2,0.2-0.4,0.2-0.6,0.2v-0.1c-0.2,0.1-0.4,0.1-0.5,0.2c0,0.1-0.1,0.1-0.2,0.2c-0.2,0.1-0.3,0.1-0.4,0.2
				c-0.1,0.1,0,0.1,0.1,0.1c0.2-0.1,0.4-0.2,0.5-0.2c0.3-0.1,0.4-0.1,0.6,0.1c0.2,0,0.4,0,0.4,0.1c0.1,0.1-0.1,0.2-0.2,0.2
				c0,0-0.1,0-0.2,0c-0.3,0.1-0.5,0.2-0.8,0.3C63.3,23,63.4,23,63.4,23.1z"/>
		</g>
	</g>
	<g>
		<g>
			<path class="st8" d="M49,24.2c-0.1,0-0.1,0.1-0.2,0.1c-0.1-0.2-0.4-0.3-0.8-0.4c0,0.1,0,0.2,0,0.3c-0.2,0-0.2-0.1-0.2-0.1
				c0-0.1,0-0.3-0.1-0.4h-0.1c0,0.2,0,0.3,0,0.5c0,0.1,0.1,0.2-0.1,0.3h-0.1v0.1h0.1l0,0l0.1-0.1c0.1,0,0.2,0,0.2,0
				c0.3,0,0.7,0,1,0.1c0.5,0.1,0.5,0.1,0.5,0.4c0,0.1-0.1,0.3-0.2,0.4c0,0-0.2,0.1-0.3,0.1c-0.2-0.1-0.3,0-0.5,0l0,0
				c0.1,0,0.2,0,0.3,0c0.3,0.1,0.5,0,0.8,0c0-0.3-0.1-0.6-0.1-0.9c0.1,0,0.2,0,0.2,0s0.1,0,0.1-0.1C49.4,24.4,49.2,24.3,49,24.2z"/>
		</g>
	</g>
	<g>
		<g>
			<path class="st9" d="M51.4,26.3c-0.1-0.1-0.3-0.3-0.3-0.4c-0.1-0.2-0.3-0.5-0.6-0.7c-0.3,0.1-0.6,0.3-0.8,0.4s-0.4,0.2-0.6,0.1
				c0.1,0.1,0.2,0.2,0.4,0.3c0-0.1,0-0.1,0.1-0.2c0.2,0.1,0.3,0.3,0.6,0.1c0,0.1,0,0.1,0.1,0.2c0.1,0,0.2,0,0.3-0.1
				c0,0.1,0,0.1,0,0.2l0,0l0.1,0.1l0.1,0.1C51,26.3,51.2,26.3,51.4,26.3z"/>
		</g>
	</g>
	<g>
		<g>
			<path class="st10" d="M50,22.4c0-0.1,0-0.1,0-0.2s-0.1-0.1-0.2-0.2c-0.1,0.1-0.1,0.2-0.2,0.2c-0.1-0.1-0.1-0.1-0.2-0.1
				c-0.1,0-0.1,0-0.2,0c0.1-0.2-0.1-0.3-0.5-0.4c-0.2,0.1-0.5,0.1-0.7,0.2c-0.1,0-0.1,0.1-0.1,0.2H48h0.1h0.1h0.1
				c0.1-0.1,0.2-0.1,0.4,0l0,0h0.1l0,0c0,0,0.1,0,0.1,0.1c0.1,0,0.3,0,0.3,0c0.1,0.1,0,0.1,0,0.2v0.1c-0.2,0.1-0.4,0.1-0.7,0.2h-0.1
				l0,0l0,0c0.1,0,0.1,0,0.2,0C49.3,22.8,49.7,22.6,50,22.4z"/>
		</g>
	</g>
	<g>
		<g>
			<path class="st11" d="M54.7,24.4c0,0,0,0.1-0.1,0.1h0.1h0.1c0.1,0,0.1,0,0.2,0h0.1h0.1h0.1c0.2,0.1,0.1,0.2,0.2,0.2
				c0.1,0.1,0,0.3-0.2,0.3c-0.2,0.1-0.5,0.3-0.9,0.2c0,0.1,0.1,0.2,0.3,0.2s0.4,0,0.5-0.1c0,0,0.2,0,0.2-0.1s0.2-0.2,0.5-0.2
				c0.1,0,0.2,0.1,0.3,0.2c0,0,0.1-0.1,0.2-0.1c0.1,0.1,0.1,0.2,0.1,0.2c0.5,0,0.1-0.2,0.3-0.3c0.1,0,0.2,0,0.2,0.1
				c0.2,0.2,0.6,0.3,0.5,0.5c0.1,0,0.2,0,0.3,0l0,0c0,0,0,0,0-0.1c-0.3-0.3-0.5-0.5-1-0.7c-0.1,0.1-0.2,0-0.3,0
				c-0.5-0.2-0.9-0.3-1.4-0.5C55,24.5,54.9,24.4,54.7,24.4z"/>
		</g>
	</g>
	<g>
		<g>
			<path class="st12" d="M62.6,22.7c0,0.2,0,0.2,0.4,0.2c0.1,0,0.2,0,0.3,0c0,0.1,0.1,0.1,0.1,0.2c-0.3,0-0.6,0.1-0.9,0.1
				c-0.1,0-0.3,0-0.4,0c-0.3,0-0.4,0-0.5-0.2c0-0.1,0-0.2,0-0.2c0.1-0.1,0.2-0.1,0.3-0.2c0.5-0.2,1.1-0.5,1.6-0.7
				c0,0.1-0.1,0.1-0.2,0.2c-0.2,0.1-0.3,0.1-0.4,0.2c-0.1,0.1,0,0.1,0.1,0.1C62.7,22.5,62.7,22.6,62.6,22.7z M62.4,22.7
				c0.2-0.1,0.2-0.2,0.2-0.3C62.3,22.5,62.3,22.5,62.4,22.7z"/>
		</g>
	</g>
	<g>
		<g>
			<path class="st13" d="M53.5,25l-0.1-0.1c0-0.1,0-0.2-0.1-0.3c-0.1,0.1-0.1,0.2-0.2,0.2c-0.1,0-0.3-0.1-0.4-0.1
				c0-0.1,0-0.2-0.4-0.3c0-0.1,0.1-0.1,0.1-0.2c-0.2,0-0.5-0.1-0.4-0.2c-0.2,0-0.4,0-0.6-0.1c-0.1,0-0.2,0.1-0.2,0.1
				c0,0.1,0.1,0.1,0.1,0.2c0.5,0.2,1,0.5,1.5,0.7c0.1,0,0.2,0.1,0.4,0.1l0.1-0.1c0.1,0,0.2,0.1,0,0.2h-0.1c0.1,0,0.2,0.1,0.3,0.1
				c0,0,0-0.1,0.1-0.1s0.1-0.1,0.2-0.1C53.7,25,53.7,24.9,53.5,25C53.7,25.1,53.6,25.1,53.5,25L53.5,25C53.6,25.1,53.5,25.1,53.5,25
				L53.5,25z"/>
		</g>
	</g>
	<g>
		<g>
			<path class="st14" d="M51,23.2c0.2,0.1,0.4,0,0.6-0.1c0,0,0.1-0.1,0.2-0.1c0.2-0.2,0.2-0.2,0.6-0.1c0.1-0.1,0.1-0.1,0.3-0.2
				c0,0.1,0.1,0.1,0.1,0.1v0.1c-0.4,0.1-0.5,0.1-0.2,0.3c0.1,0,0.1,0,0.2-0.1h-0.1c0.2-0.2,0.5-0.3,0.7-0.5h0.1
				c0.3-0.2,0.3-0.2,0.1-0.4c-0.2,0-0.4,0.1-0.6,0.1c-0.1,0-0.2,0-0.3,0c-0.5,0.1-0.9,0.3-1.3,0.5C51.1,23.1,51,23.1,51,23.2z"/>
		</g>
	</g>
	<g>
		<g>
			<path class="st15" d="M47.4,24.7v-0.1l0,0c0,0,0,0-0.1,0c0,0.1-0.1,0.2-0.1,0.3h-0.1c0-0.1,0-0.2-0.2-0.3
				c-0.1-0.1-0.2-0.2-0.2-0.3c0-0.1-0.1-0.2-0.2-0.3c0.2,0,0.2,0,0.3,0c0.1-0.1,0.2-0.2,0.2-0.3h-0.1h-0.1l0,0
				c-0.3-0.1-0.6-0.1-0.9-0.2c0,0.1,0.2,0.1,0.3,0.1s0.3,0,0.5,0.1c-0.1,0.1-0.2,0.1-0.3,0.1c-0.2,0-0.3-0.1-0.5,0
				c0.1,0,0.2,0.1,0.3,0.1c0.1,0.4,0.3,0.8,0.4,1.1c0,0,0,0,0.1,0.1l0,0c0-0.1,0.1-0.1,0.1-0.2c0.2,0.1,0.2,0,0.4,0.3
				c0.2,0.2,0.5,0.2,0.8,0.3h0.1c-0.1-0.1-0.3-0.1-0.4-0.2c-0.4,0-0.4,0-0.4-0.2C47.4,24.8,47.4,24.8,47.4,24.7z"/>
		</g>
	</g>
	<g>
		<g>
			<path class="st16" d="M59,23.4L59,23.4L59,23.4c0-0.1-0.1-0.2-0.1-0.2c0.1,0,0.2,0,0.2,0h0.1c0-0.1,0.1-0.2,0.3-0.2
				c0.1,0,0.1-0.1,0.3,0c0.1-0.1,0.3-0.3,0.4-0.4h-0.1c0,0.1-0.1,0.2-0.3,0.3c0-0.2-0.4-0.1-0.5-0.2s0.2-0.1,0.1-0.2
				c-0.6,0.2-0.9,0.5-1.3,0.8c0,0,0,0-0.1,0.1l0,0c0,0,0,0,0.1,0.1c0.1-0.1,0.1-0.1,0.2-0.2c0.2,0.1,0.4,0.1,0.5,0.2
				C58.9,23.4,58.9,23.4,59,23.4L59,23.4z"/>
		</g>
	</g>
	<g>
		<g>
			<path class="st17" d="M50.5,26.2c0-0.1,0-0.1,0-0.2c-0.1,0-0.2,0-0.3,0.1c0-0.1,0-0.1-0.1-0.2c-0.3,0.1-0.4,0-0.6-0.1
				c0,0.1,0,0.1-0.1,0.2c-0.1-0.1-0.2-0.2-0.4-0.3h-0.1h-0.1h-0.1l-0.1,0.1c-0.1,0-0.3-0.1-0.4-0.1c-0.3,0,0,0.1-0.1,0.2
				c0.4,0.2,0.8,0.4,1.4,0.5c0-0.1,0.1-0.2,0.1-0.3c0.3,0,0.1,0.1,0.2,0.2c0,0,0.1,0,0.1,0.1c0.1,0,0.2-0.1,0.2-0.1
				c0.1,0,0.1,0.1,0.2,0.1C50.4,26.3,50.5,26.2,50.5,26.2z"/>
		</g>
	</g>
	<g>
		<g>
			<path class="st18" d="M56.3,22.5c-0.1-0.2-0.4-0.3-0.8-0.1c-0.2,0.1-0.3,0.2-0.4,0.2c-0.1,0-0.1,0-0.2-0.1l0,0h-0.1
				c-0.1,0-0.1,0.1-0.2,0.1c0.2,0.1,0.1,0.2,0.1,0.3c-0.1,0.2-0.1,0.4,0.2,0.6l0.1-0.1c-0.1-0.1-0.1-0.1,0-0.2l0,0
				c0-0.1,0-0.2,0-0.2c0.3-0.1,0.3-0.2,0.1-0.3c0.2,0,0.4,0,0.5,0l0.1-0.1c0-0.1,0-0.1-0.1-0.2h0.1c0.1,0.2,0.4,0.3,0.8,0.3
				c0,0-0.1,0-0.1,0.1l0,0c0,0,0.1,0,0.1,0.1c0.1,0,0.2-0.1,0.3-0.1c0-0.1-0.1-0.2-0.1-0.2c-0.1,0-0.1,0-0.2,0.1
				C56.3,22.6,56.3,22.6,56.3,22.5z"/>
		</g>
	</g>
	<g>
		<g>
			<path class="st19" d="M62.2,24.8c0.1,0,0.1,0,0.2,0c0.1,0,0.2,0,0.3,0c0.2,0,0.4,0,0.5,0c0-0.1,0-0.2,0-0.3
				c0-0.1-0.1-0.1-0.2-0.1c0,0.2,0,0.2-0.2,0.3c0.1-0.2,0.1-0.2,0.2-0.3c-0.1-0.1-0.3-0.2-0.4-0.3l0,0c-0.1,0-0.1,0-0.2,0
				c-0.1,0-0.1-0.1-0.2-0.1c-0.1,0.1-0.1,0.1-0.2,0.1c0.2,0.2,0.2,0.2,0,0.4c-0.1-0.1-0.1-0.1-0.2-0.2h-0.1c0,0.1,0,0.2-0.1,0.4
				C61.9,24.7,62.1,24.8,62.2,24.8L62.2,24.8z"/>
		</g>
	</g>
	<g>
		<g>
			<path class="st20" d="M55,23.5c-0.3-0.2-0.3-0.4-0.2-0.6c0-0.1,0.1-0.2-0.1-0.3c0,0,0,0-0.1,0.1c0,0,0.1,0,0,0
				c-0.2,0.2-0.4,0.4-0.5,0.6c-0.1,0.1-0.2,0.2-0.3,0.3c0,0-0.1,0-0.2,0l0.1,0.1c0.3,0,0.7,0,1-0.1h0.1l0,0c0,0-0.1,0-0.2,0
				C54.8,23.6,55,23.5,55,23.5C55,23.6,55,23.5,55,23.5z"/>
		</g>
	</g>
	<g>
		<g>
			<path class="st21" d="M49,25.7C49,25.7,49.1,25.7,49,25.7c0.4,0,0.5,0,0.7-0.1c0.2-0.2,0.5-0.3,0.8-0.4l-0.1-0.1
				c-0.1,0-0.2,0-0.2,0c-0.1-0.1-0.2-0.2-0.3-0.3c-0.1,0.1-0.1,0.1-0.2,0.2c0-0.1-0.1-0.2-0.1-0.4c-0.1,0-0.1,0-0.2,0
				c0,0.3,0.1,0.6,0.1,0.9c-0.3,0.1-0.5,0.1-0.8,0l0,0l0.1,0.1h0.1C48.9,25.7,49,25.7,49,25.7z"/>
		</g>
	</g>
	<g>
		<g>
			<path class="st22" d="M62.2,24.8L62.2,24.8c-0.1-0.1-0.3-0.1-0.4-0.1c0-0.1,0-0.2,0.1-0.4H62c0.1,0.1,0.1,0.1,0.2,0.2
				c0.2-0.1,0.2-0.2,0-0.4c0.1,0,0.1-0.1,0.2-0.1c0.1,0.1,0.1,0.1,0.2,0.1c0.1,0,0.2,0,0.2,0c-0.1-0.1-0.4-0.2-0.7-0.3
				c-0.2,0-0.4,0-0.6,0v0.1c-0.1,0.2,0.2,0.3-0.2,0.5c0,0.1,0.1,0.1,0.1,0.2C61.6,24.7,61.9,24.8,62.2,24.8z"/>
		</g>
	</g>
	<g>
		<g>
			<path class="st23" d="M64,21.7v0.1c0.2,0,0.4-0.1,0.6-0.2c0.1,0.2,0.1,0.4,0.2,0.6c0.1,0.2-0.4,0.3-0.4,0.5c0.1,0,0.3,0,0.4-0.1
				h0.1c0,0,0.1,0,0.1-0.1l0,0c0,0,0.1,0,0.1-0.1l0.1-0.1c0,0,0.1,0,0.1-0.1l0,0c0-0.3,0-0.5-0.1-0.7c-0.3,0.1-0.3,0.1-0.5-0.1
				C64.5,21.5,64.3,21.6,64,21.7z"/>
		</g>
	</g>
	<g>
		<g>
			<path class="st24" d="M61.4,24.7c0-0.1-0.1-0.1-0.1-0.2l0,0c-0.1-0.1-0.1-0.1-0.2-0.2c-0.1,0-0.1,0-0.2,0c-0.5,0.1-0.7,0-0.7-0.3
				c0-0.1,0-0.1,0-0.2l0,0c-0.1,0-0.1,0-0.2,0.1c-0.2,0-0.3,0.1-0.2,0.2c0,0,0,0.1,0.1,0.2c-0.4-0.1-0.8-0.2-1.1-0.3l0,0l0,0l0,0
				h0.1l0,0H59c0.1,0,0.1,0,0.2,0.1h0.1c0,0,0,0,0.1,0h0.1C60.1,24.5,60.7,24.6,61.4,24.7z"/>
		</g>
	</g>
	<g>
		<g>
			<path class="st25" d="M52.4,23.3c-0.2-0.2-0.2-0.3,0.2-0.3v-0.1c0,0,0-0.1-0.1-0.1c-0.1,0.1-0.2,0.1-0.3,0.2
				c-0.3-0.1-0.3-0.1-0.6,0.1c0,0.1,0.1,0.2,0.1,0.3c0,0-0.1,0.1-0.2,0.1c-0.1,0-0.3,0.1-0.5,0.1c-0.1,0-0.1,0-0.2,0.1
				c0.1,0,0.1,0.1,0.2,0.1c0,0,0,0,0.1,0C51.6,23.6,52,23.5,52.4,23.3z"/>
		</g>
	</g>
	<g>
		<g>
			<path class="st26" d="M53.9,25.2c-0.1,0-0.1,0.1-0.2,0.1l-0.1,0.1c0.5,0.2,1.1,0.3,1.6,0.5c0.1,0,0.2,0,0.3,0
				c0-0.2-0.1-0.3-0.1-0.5c-0.1,0-0.2,0-0.2,0.1c-0.1,0.1-0.3,0.1-0.5,0.1s-0.3-0.1-0.3-0.2C54.2,25.3,54.1,25.3,53.9,25.2z"/>
		</g>
	</g>
	<g>
		<g>
			<path class="st27" d="M50.5,26.2c-0.1,0-0.1,0.1-0.2,0.1c-0.1,0-0.1-0.1-0.2-0.1c-0.1,0-0.1,0.1-0.2,0.1c0,0-0.1,0-0.1-0.1
				c-0.1-0.1,0.1-0.2-0.2-0.2c0,0.1-0.1,0.2-0.1,0.3c0.4,0.2,0.9,0.2,1.4,0.3c0-0.2,0.1-0.2,0.5-0.1c0.1,0,0.2,0,0.3,0
				c-0.1-0.1-0.2-0.1-0.3-0.2c-0.2,0-0.4,0-0.6,0.1c0,0-0.1,0-0.1-0.1C50.6,26.3,50.6,26.2,50.5,26.2L50.5,26.2z"/>
		</g>
	</g>
	<g>
		<g>
			<path class="st28" d="M64.7,21.5c0.1,0.1,0.1,0.1,0.5,0.1c0.1,0.2,0.1,0.5,0.1,0.7c0.3-0.2,0.4-0.5,0.4-0.7
				c0-0.1-0.1-0.2-0.4-0.3C65.2,21.3,65,21.4,64.7,21.5z"/>
		</g>
	</g>
	<g>
		<g>
			<path class="st29" d="M44.2,23.2c0.2-0.1,0-0.1,0.1-0.2c-0.5-0.1-1.1-0.3-1.6-0.4h-0.1c0.1,0,0.1,0.1,0.2,0.1
				C43.1,22.9,43.6,23.1,44.2,23.2z"/>
		</g>
	</g>
	<g>
		<g>
			<path class="st30" d="M54.7,23.8c-0.3,0.1-0.6,0.1-1,0.1l-0.1-0.1h-0.1c-0.1,0-0.1,0-0.2,0l0,0l0.1,0.1l0,0l0,0
				c-0.1,0-0.3,0.1-0.4,0.1c0.6,0,1.1,0,1.7,0c0.3,0,0.7,0,1,0c0.1,0,0.3,0,0.4-0.1H56l0,0c0.2,0,0.4,0,0.6,0c0.2,0,0.4,0,0.7-0.1
				c-0.3,0-0.6,0-0.9-0.1c-0.2,0-0.4,0-0.7,0.1l0,0l0,0C55.3,23.8,55,23.8,54.7,23.8z"/>
		</g>
	</g>
	<g>
		<g>
			<path class="st31" d="M59.2,23.4c0.1,0.2,0.1,0.2,0.4,0.2c0.2,0,0.4,0,0.5,0c0.2,0,0.5,0.1,0.7,0c-0.4,0-0.7-0.1-1.1-0.1
				c-0.1,0-0.2,0-0.3,0l0,0c0.1,0,0.2,0,0.3,0c0.4-0.1,0.8-0.1,1.2-0.2c0,0,0.1-0.1-0.1-0.1l0,0h-0.1C60.2,23.3,59.7,23.4,59.2,23.4
				z"/>
		</g>
	</g>
	<g>
		<g>
			<path class="st32" d="M48.8,25.7l-0.1-0.1c-0.1,0-0.2-0.1-0.3-0.1l0,0l0,0h-0.1l0,0c-0.2,0-0.4,0-0.6,0c-0.1,0-0.1-0.1-0.3-0.2
				c0,0.1,0,0.2,0,0.2c0.3,0.1,0.5,0.3,0.8,0.4c0.1-0.1-0.2-0.2,0.1-0.2C48.4,25.7,48.6,25.8,48.8,25.7
				C48.7,25.8,48.8,25.7,48.8,25.7z"/>
		</g>
	</g>
	<g>
		<g>
			<path class="st33" d="M47.4,25.5c0-0.1,0-0.1,0-0.2c0.1,0.1,0.2,0.2,0.3,0.2c0.2,0,0.4,0,0.6,0l-0.1-0.1h-0.1
				c-0.3-0.1-0.7-0.1-0.8-0.3c-0.2-0.2-0.2-0.2-0.4-0.3c0,0.1-0.1,0.1-0.1,0.2C46.8,25.2,47.2,25.3,47.4,25.5z"/>
		</g>
	</g>
	<g>
		<g>
			<path class="st34" d="M63.8,24.6c0.3,0.1,0.1,0.3-0.2,0.3c-0.4,0-0.8,0-1.2-0.1c0.1,0,0.2,0,0.3,0c0.2,0,0.4,0,0.5,0
				c0-0.1,0-0.2,0-0.3c0-0.1-0.1-0.1-0.2-0.1l0,0c-0.1-0.1-0.3-0.2-0.4-0.3C63.1,24.3,63.5,24.4,63.8,24.6z M63.4,24.8
				c0,0,0.1,0,0.2,0.1l0.1-0.1c0-0.1-0.1-0.1-0.2-0.2h-0.1C63.4,24.7,63.4,24.7,63.4,24.8z"/>
		</g>
	</g>
	<g>
		<g>
			<path class="st24" d="M60.9,23.7c-0.3,0.1-0.5,0-0.7,0c0.1,0.1,0,0.2,0,0.2l0,0c0.2-0.1,0.4-0.1,0.7-0.1c0.4,0,0.4,0,0.4,0.2
				s0,0.3,0,0.5l0,0c0.4-0.1,0.1-0.3,0.2-0.5v-0.1c0.2,0,0.4,0,0.6,0l0,0H62h-0.1c-0.1,0-0.1,0-0.2,0c0,0,0,0-0.1,0h-0.1
				C61.3,23.8,61.1,23.7,60.9,23.7z"/>
		</g>
	</g>
	<g>
		<g>
			<path class="st20" d="M52.9,24c0.1,0,0.3-0.1,0.4-0.1l0,0l-0.1-0.1c-0.3,0.1-0.3,0.1-0.6,0.1h0.1h-0.1c-0.5,0-1,0-1.5,0
				c0.2,0,0.3,0.1,0.2,0.2c0.3,0,0.6,0,0.9,0C52.5,24,52.7,24,52.9,24z"/>
		</g>
	</g>
	<g>
		<g>
			<path class="st35" d="M59.4,22.4c0.2,0.1-0.2,0.1-0.1,0.2c0.1,0.1,0.5,0,0.5,0.2c0.2-0.1,0.3-0.2,0.3-0.3c-0.4,0-0.5,0-0.4-0.2
				C59.7,22.3,59.5,22.4,59.4,22.4z"/>
		</g>
	</g>
	<g>
		<g>
			<path class="st36" d="M53.4,23.8L53.4,23.8c0.2,0,0.3,0,0.3,0c0.1-0.1,0.3-0.2,0.3-0.3c0.2-0.2,0.4-0.4,0.5-0.6l0,0
				c-0.2,0.2-0.4,0.4-0.5,0.5s-0.3,0.3-0.4,0.4C53.6,23.7,53.5,23.7,53.4,23.8z"/>
		</g>
	</g>
	<g>
		<g>
			<path class="st37" d="M55.3,22.3c0.1,0,0.2,0,0.2,0c0.3-0.2,0.7-0.4,1-0.6c0.2-0.1,0.4-0.2,0.5-0.3c-0.1,0-0.2,0-0.3,0.1
				C56.2,21.8,55.7,22,55.3,22.3z"/>
		</g>
	</g>
	<g>
		<g>
			<path class="st38" d="M50,21.3C50.1,21.4,49.9,21.4,50,21.3c0,0.2,0.1,0.4,0.2,0.5c0.1,0,0.2-0.1,0.2-0.1c0-0.1,0-0.2,0-0.3
				c0,0,0-0.1-0.1-0.1C50.2,21.2,50.1,21.3,50,21.3z"/>
		</g>
	</g>
	<g>
		<g>
			<path class="st39" d="M62.5,23.2c-0.1,0-0.3,0-0.4,0c-0.3,0-0.4,0-0.5-0.2c0-0.1,0-0.2,0-0.2l0,0h-0.1c0,0,0,0-0.1,0.1V23
				c0,0.1-0.1,0.2-0.1,0.3c0.1,0,0.2,0,0.3,0c-0.1,0-0.2,0.1-0.3,0.1c0.2,0,0.3,0,0.5,0c0.1,0,0.2,0,0.4,0
				C62.3,23.2,62.4,23.2,62.5,23.2z"/>
		</g>
	</g>
	<g>
		<g>
			<path class="st40" d="M59.8,22.3c-0.1,0.2,0,0.2,0.4,0.2h0.1c0-0.1,0.1-0.1,0.1-0.2C60.3,22.2,60.2,22.2,59.8,22.3z"/>
		</g>
	</g>
	<g>
		<g>
			<path class="st41" d="M55.2,24.5c0.5,0.2,0.9,0.3,1.4,0.5c0.1,0,0.1,0.1,0.3,0C56.4,24.7,55.8,24.5,55.2,24.5
				C55.2,24.4,55.2,24.5,55.2,24.5z"/>
		</g>
	</g>
	<g>
		<g>
			<path class="st42" d="M55.5,23.6c0.6-0.1,1.1-0.3,1.6-0.6l0,0l0,0c-0.1,0-0.1,0-0.2,0c-0.4,0.2-1,0.4-1.5,0.5
				C55.4,23.6,55.4,23.6,55.5,23.6z"/>
		</g>
	</g>
	<g>
		<g>
			<path class="st43" d="M49.2,23.7c-0.1,0-0.1,0-0.2,0c0.8,0,1.1,0,1.4-0.3v-0.1c-0.1,0.1-0.3,0.1-0.4,0.2
				C49.8,23.7,49.5,23.8,49.2,23.7z"/>
		</g>
	</g>
	<g>
		<g>
			<path class="st44" d="M61.3,23.3c0.1,0,0.2,0,0.3-0.1c-0.1,0-0.2,0-0.3,0c0-0.1,0.1-0.2,0.1-0.3v-0.1l-0.1,0.1
				c-0.1,0.1-0.3,0.2-0.5,0.3c0.2,0,0.1,0.1,0.1,0.1C61.1,23.3,61.2,23.3,61.3,23.3z"/>
		</g>
	</g>
	<g>
		<g>
			<path class="st45" d="M49.6,24.6c0,0.1,0.1,0.2,0.1,0.4c0,0,0.1-0.1,0.2-0.2c0.1,0.1,0.2,0.2,0.3,0.3c0,0,0.1,0,0.2,0
				C50.1,24.9,49.9,24.7,49.6,24.6L49.6,24.6z"/>
		</g>
	</g>
	<g>
		<g>
			<path class="st46" d="M51.7,26.5c-0.1,0-0.2,0-0.3,0c-0.3-0.1-0.4,0-0.5,0.1C51.4,26.7,51.4,26.7,51.7,26.5z"/>
		</g>
	</g>
	<g>
		<g>
			<path class="st47" d="M56.3,23.7c0.3,0,0.6,0,0.9,0.1c0.1,0,0.2,0,0.3,0c-0.1,0-0.1-0.1-0.2-0.1C57,23.7,56.6,23.7,56.3,23.7z"/>
		</g>
	</g>
	<g>
		<g>
			<path class="st48" d="M53,24.1C53,24.1,53,24.2,53,24.1c0.5,0.1,0.9,0.2,1.3,0.2c0.1,0,0.1,0,0.2,0c-0.4-0.1-0.8-0.1-1.2-0.2
				C53.2,24.1,53.2,24.1,53,24.1C53.1,24.1,53,24.1,53,24.1z"/>
		</g>
	</g>
	<g>
		<g>
			<path class="st49" d="M57,23L57,23L57,23c0.3-0.1,0.6-0.2,0.7-0.4h-0.1l0,0C57.4,22.7,57.2,22.8,57,23L57,23z"/>
		</g>
	</g>
	<g>
		<g>
			<path class="st50" d="M53.3,22.8L53.3,22.8c-0.3,0.2-0.6,0.3-0.8,0.5c0,0,0,0,0.1,0C52.8,23.1,53.1,23,53.3,22.8z"/>
		</g>
	</g>
	<g>
		<g>
			<path class="st31" d="M59.9,23c-0.1-0.1-0.2,0-0.3,0c-0.1,0.1-0.2,0.1-0.3,0.2h-0.1c-0.1,0-0.1,0.1-0.2,0.1l0,0h0.1
				C59.4,23.2,59.6,23.1,59.9,23z"/>
		</g>
	</g>
	<g>
		<g>
			<path class="st15" d="M45.8,23.6c-0.1-0.2-0.4-0.3-0.8-0.2C45.3,23.4,45.5,23.5,45.8,23.6z"/>
		</g>
	</g>
	<g>
		<g>
			<path class="st51" d="M52.5,22.5c0.1,0,0.2,0.1,0.3,0c0.2,0,0.4-0.1,0.6-0.1C53.1,22.4,52.8,22.4,52.5,22.5z"/>
		</g>
	</g>
	<g>
		<g>
			<path class="st30" d="M55.5,23.6L55.5,23.6c-0.2,0-0.3,0-0.4,0.1c-0.2,0-0.3,0.1-0.5,0.1c0.1,0,0.1,0,0.2,0
				C55,23.7,55.2,23.7,55.5,23.6z"/>
		</g>
	</g>
	<g>
		<g>
			<path class="st52" d="M58.7,24.1L58.7,24.1c-0.2-0.2-0.3-0.3-0.5-0.4l0,0c0,0,0,0,0,0.1l0,0c0,0,0.1,0,0.1,0.1
				C58.4,24,58.5,24,58.7,24.1L58.7,24.1z"/>
		</g>
	</g>
	<g>
		<g>
			<path class="st53" d="M52.3,24c-0.3,0-0.6,0-0.9,0c0.1,0,0.1,0,0.2,0c0.1,0,0.1,0,0.2,0C51.9,24.1,52,24.1,52.3,24
				C52.2,24,52.3,24,52.3,24z"/>
		</g>
	</g>
	<g>
		<g>
			<path class="st54" d="M55.5,25.8c-0.1,0-0.2,0-0.3,0c0.2,0,0.4,0.1,0.7,0.1C55.8,25.9,55.7,25.9,55.5,25.8z"/>
		</g>
	</g>
	<g>
		<g>
			<path class="st55" d="M54.7,23.8c0.3,0,0.7,0,1,0l0,0l0,0C55.3,23.8,55,23.8,54.7,23.8L54.7,23.8z"/>
		</g>
	</g>
	<g>
		<g>
			<path class="st5" d="M53.3,25.3L53.3,25.3C53.4,25.2,53.3,25.2,53.3,25.3c-0.2-0.1-0.3-0.2-0.5-0.2C53,25.2,53.2,25.2,53.3,25.3z
				"/>
		</g>
	</g>
	<g>
		<g>
			<path class="st56" d="M55.2,24.5C55.2,24.5,55.2,24.4,55.2,24.5c-0.2-0.1-0.3-0.1-0.5-0.2v0.1C54.9,24.4,55,24.5,55.2,24.5z"/>
		</g>
	</g>
	<g>
		<g>
			<path class="st57" d="M48.2,23c-0.3-0.1-0.5,0.1-0.7,0.1c0.1,0,0.2,0,0.3,0C47.9,23.1,48,23.1,48.2,23z"/>
		</g>
	</g>
	<g>
		<g>
			<path class="st58" d="M52.7,23.9L52.7,23.9C53,24,53,24,53.2,23.8l0,0C53.1,23.8,52.9,23.8,52.7,23.9z"/>
		</g>
	</g>
	<g>
		<g>
			<path class="st54" d="M56.7,26.1C56.5,26,56.3,26,56,26C56.2,26.1,56.4,26.1,56.7,26.1z"/>
		</g>
	</g>
	<g>
		<g>
			<path class="st59" d="M56.6,23.8c-0.2,0-0.4,0-0.6,0l0,0h0.1C56.2,23.9,56.4,23.8,56.6,23.8z"/>
		</g>
	</g>
	<g>
		<g>
			<path class="st60" d="M59.8,23.5c-0.1,0-0.2,0-0.3,0l0,0C59.6,23.6,59.7,23.6,59.8,23.5C59.8,23.6,59.8,23.5,59.8,23.5z"/>
		</g>
	</g>
	<g>
		<g>
			<path class="st61" d="M58.2,23.7L58.2,23.7c-0.2-0.1-0.3-0.1-0.5-0.1l0,0c0.1,0,0.1,0,0.2,0C58,23.7,58.1,23.7,58.2,23.7
				L58.2,23.7z"/>
		</g>
	</g>
	<g>
		<g>
			<path class="st62" d="M48.7,22.9c-0.1,0-0.1,0-0.2,0c0,0,0,0.1-0.1,0.1C48.6,23,48.6,22.9,48.7,22.9z"/>
		</g>
	</g>
	<g>
		<g>
			<path class="st12" d="M62.1,23.2c-0.1,0-0.2,0-0.4,0C61.9,23.3,62,23.3,62.1,23.2z"/>
		</g>
	</g>
	<g>
		<g>
			<path class="st63" d="M57.6,22.6C57.6,22.6,57.7,22.6,57.6,22.6c0.1,0,0.2-0.1,0.2-0.1C57.6,22.4,57.6,22.4,57.6,22.6z"/>
		</g>
	</g>
	<g>
		<g>
			<path class="st64" d="M50.9,23.8L50.9,23.8C50.8,23.9,50.8,23.9,50.9,23.8c0,0,0.1,0,0.2,0C51,23.8,50.9,23.8,50.9,23.8z"/>
		</g>
	</g>
	<g>
		<g>
			<path class="st65" d="M46.9,23.5L46.9,23.5L46.9,23.5c0.1,0,0.2,0,0.3,0C47.1,23.5,47,23.5,46.9,23.5z"/>
		</g>
	</g>
	<g>
		<g>
			<path class="st66" d="M50.9,23.7c-0.1,0-0.1,0-0.2,0l0,0C50.8,23.7,50.9,23.7,50.9,23.7z"/>
		</g>
	</g>
	<g>
		<g>
			<path class="st5" d="M53.1,24.1c0.1,0,0.1,0,0.2,0C53.2,24.1,53.2,24.1,53.1,24.1z"/>
		</g>
	</g>
	<g>
		<g>
			<path class="st22" d="M61.6,23.8c0.1,0,0.1,0,0.2,0C61.8,23.8,61.7,23.8,61.6,23.8z"/>
		</g>
	</g>
	<g>
		<g>
			<path class="st22" d="M61.9,23.9C62,23.9,62,23.9,61.9,23.9C62,23.9,62,23.9,61.9,23.9z"/>
		</g>
	</g>
	<g>
		<g>
			<path class="st12" d="M61.5,22.8C61.5,22.8,61.6,22.8,61.5,22.8C61.6,22.8,61.5,22.8,61.5,22.8z"/>
		</g>
	</g>
	<g>
		<g>
			<path class="st22" d="M61.5,23.8L61.5,23.8L61.5,23.8z"/>
		</g>
	</g>
	<g>
		<g>
			<path class="st44" d="M60.7,23.2L60.7,23.2C60.8,23.2,60.8,23.2,60.7,23.2z"/>
		</g>
	</g>
	<g>
		<g>
			<path class="st4" d="M59.4,24.3L59.4,24.3C59.3,24.3,59.4,24.3,59.4,24.3z"/>
		</g>
	</g>
	<g>
		<g>
			<path class="st4" d="M59.2,24.3L59.2,24.3L59.2,24.3z"/>
		</g>
	</g>
	<g>
		<g>
			<path class="st4" d="M58.9,24.2L58.9,24.2L58.9,24.2z"/>
		</g>
	</g>
	<g>
		<g>
			<path class="st4" d="M58.8,24.2L58.8,24.2L58.8,24.2z"/>
		</g>
	</g>
	<g>
		<g>
			<path class="st4" d="M58.7,24.1L58.7,24.1L58.7,24.1L58.7,24.1z"/>
		</g>
	</g>
	<g>
		<g>
			<path class="st4" d="M58.3,23.9C58.3,23.9,58.3,23.8,58.3,23.9C58.3,23.8,58.3,23.9,58.3,23.9z"/>
		</g>
	</g>
	<g>
		<g>
			<path class="st4" d="M58.2,23.7L58.2,23.7C58.2,23.8,58.2,23.8,58.2,23.7C58.2,23.8,58.2,23.8,58.2,23.7z"/>
		</g>
	</g>
	<g>
		<g>
			<path class="st4" d="M58.1,23.3C58.1,23.3,58.1,23.2,58.1,23.3C58.1,23.2,58.1,23.3,58.1,23.3z"/>
		</g>
	</g>
	<g>
		<g>
			<path class="st3" d="M57.8,25.7L57.8,25.7L57.8,25.7z"/>
		</g>
	</g>
	<g>
		<g>
			<path class="st28" d="M65.3,22.3L65.3,22.3L65.3,22.3z"/>
		</g>
	</g>
	<g>
		<g>
			<path class="st0" d="M54.9,22.6C54.9,22.5,54.9,22.5,54.9,22.6C54.9,22.5,54.9,22.5,54.9,22.6z"/>
		</g>
	</g>
	<g>
		<g>
			<path class="st28" d="M65.1,22.4L65.1,22.4L65.1,22.4z"/>
		</g>
	</g>
	<g>
		<g>
			<path class="st28" d="M65.1,22.5C65,22.5,65,22.5,65.1,22.5C65,22.5,65,22.5,65.1,22.5z"/>
		</g>
	</g>
	<g>
		<g>
			<path class="st8" d="M48.8,24.1c0,0,0.1,0,0.1,0.1C48.9,24.2,48.8,24.1,48.8,24.1z"/>
		</g>
	</g>
	<g>
		<g>
			<path class="st33" d="M46.8,24.9C46.7,24.9,46.7,24.9,46.8,24.9C46.7,24.9,46.7,24.9,46.8,24.9z"/>
		</g>
	</g>
	<g>
		<g>
			<path class="st63" d="M57,22.9c0.2-0.1,0.4-0.3,0.6-0.4c-0.2,0-0.4,0-0.5,0c-0.2-0.1-0.3-0.1-0.5-0.1c0,0.1,0.1,0.2,0.1,0.2
				C56.9,22.8,56.9,22.9,57,22.9z"/>
		</g>
	</g>
	<g>
		<g>
			<path class="st63" d="M56.3,22.5c0,0.1,0,0.1,0.2,0.1C56.4,22.5,56.4,22.5,56.3,22.5z"/>
		</g>
	</g>
	<g>
		<g>
			<path class="st67" d="M48.5,22.8C48.6,22.8,48.6,22.8,48.5,22.8c0.1-0.2,0.3-0.4,0.2-0.6l0,0h-0.1l0,0c-0.1,0-0.2,0.1-0.3,0.1
				c0-0.1,0-0.1-0.1-0.1h-0.1H48h-0.1c-0.1,0-0.2,0-0.3,0s-0.1,0.1-0.2,0.1l-0.1,0.1c-0.2,0.1-0.2,0.2-0.1,0.3
				c0.1,0.1,0.3,0.1,0.4,0.1c0,0,0-0.1,0.1-0.1c0.3,0.1,0.3,0.1,0.6,0.1C48.4,22.8,48.5,22.8,48.5,22.8z"/>
		</g>
	</g>
	<g>
		<g>
			<path class="st62" d="M48.5,22.8l-0.1-0.1c-0.3,0.1-0.3,0.1-0.6-0.1c0,0,0,0.1-0.1,0.1c0,0.1,0.1,0.2,0.4,0.2
				C48.3,22.9,48.4,22.9,48.5,22.8C48.5,22.9,48.5,22.9,48.5,22.8z"/>
		</g>
	</g>
	<g>
		<g>
			<path class="st15" d="M45.2,23.2L45.2,23.2L45.2,23.2L45.2,23.2L45.2,23.2z"/>
		</g>
	</g>
	<g>
		<g>
			<path class="st65" d="M47.1,23.6c-0.1,0.1-0.1,0.2-0.2,0.3c0,0-0.1,0-0.3,0c0.1,0.1,0.2,0.2,0.2,0.3c0,0.1,0,0.2,0.2,0.3
				c0.1,0.1,0.1,0.2,0.2,0.3h0.1c0-0.1,0.1-0.2,0.1-0.3h0.1l0,0h0.1c0-0.2,0-0.3-0.3-0.5c-0.2-0.1-0.2-0.3,0.1-0.4
				C47.2,23.6,47.1,23.6,47.1,23.6z"/>
		</g>
	</g>
	<g>
		<g>
			<path class="st13" d="M51.7,24.1c-0.1,0-0.1,0-0.2,0l0,0C51.6,24.1,51.7,24.1,51.7,24.1z"/>
		</g>
	</g>
	<g>
		<g>
			<path class="st68" d="M57.6,25.7c0-0.2-0.3-0.4-0.5-0.5c0,0-0.1-0.1-0.2-0.1c-0.2,0.1,0.2,0.3-0.3,0.3c0.2,0.1,0.4,0.2,0.5,0.3
				C57.2,25.6,57.4,25.7,57.6,25.7z"/>
		</g>
	</g>
	<g>
		<g>
			<path class="st31" d="M58.9,23.4L58.9,23.4C58.9,23.4,58.9,23.5,58.9,23.4C59,23.5,59,23.5,58.9,23.4C59,23.5,59,23.5,58.9,23.4z
				"/>
		</g>
	</g>
	<g>
		<g>
			<path class="st69" d="M58.9,23.4C59,23.5,59,23.5,58.9,23.4C59,23.5,59,23.4,58.9,23.4C59,23.4,59,23.4,58.9,23.4z"/>
		</g>
	</g>
	<g>
		<g>
			<path class="st56" d="M54.7,24.6L54.7,24.6c-0.4,0-0.7,0-0.8,0.1h-0.1c-0.4,0.1-0.4,0.1-0.4,0.3l0,0h0.1l0,0h0.1l0,0
				c0.1-0.1,0.2-0.1,0.3-0.2c0.1,0,0.2,0,0.3,0.1c0-0.1,0-0.1,0-0.2c0.1,0,0.1,0.1,0.2,0.1C54.6,24.7,54.5,24.6,54.7,24.6z"/>
		</g>
	</g>
	<g>
		<g>
			<path class="st62" d="M47.7,22.2c0.1,0,0.2,0,0.3,0h-0.1C47.8,22.2,47.8,22.2,47.7,22.2z"/>
		</g>
	</g>
	<g>
		<g>
			<path class="st1" d="M46.9,22.4L46.9,22.4L46.9,22.4L46.9,22.4z"/>
		</g>
	</g>
	<g>
		<g>
			<path class="st70" d="M62.9,22.3c-0.2,0.1-0.2,0.3-0.3,0.4c0,0.2,0,0.2,0.4,0.2c0.1,0,0.2,0,0.3,0c0.3-0.1,0.5-0.2,0.8-0.3
				c0.1-0.1,0.1-0.3,0-0.4C64,22,63.8,22,63.5,22.1C63.3,22.2,63.1,22.3,62.9,22.3z"/>
		</g>
	</g>
	<g>
		<g>
			<path class="st71" d="M64,22.2c0.1,0.1,0.2,0.2,0,0.4c0.1,0,0.1,0,0.2,0c0.1-0.1,0.3-0.1,0.2-0.2C64.4,22.2,64.2,22.2,64,22.2z"
				/>
		</g>
	</g>
	<g>
		<g>
			<path class="st72" d="M48.2,25.3l0.1,0.1l0,0h0.1l0,0c0.2,0,0.3-0.1,0.5,0c0,0,0.3,0,0.3-0.1c0.1-0.1,0.2-0.3,0.2-0.4
				c0-0.3,0-0.3-0.5-0.4c-0.3-0.1-0.7-0.1-1-0.1c0,0.2,0,0.4,0,0.6C47.9,25.2,48.1,25.3,48.2,25.3z"/>
		</g>
	</g>
	<g>
		<g>
			<path class="st2" d="M47.8,25.1c0-0.2,0-0.4,0-0.6c-0.1,0-0.2,0-0.2,0s-0.1,0-0.1,0.1c0.3,0,0.1,0.2,0.2,0.2h-0.1
				c0-0.1-0.1-0.2-0.1-0.2h-0.1c0,0.1,0,0.1,0,0.2C47.4,25.1,47.4,25.1,47.8,25.1z"/>
		</g>
	</g>
	<g>
		<g>
			<path class="st33" d="M48.4,25.5c0.1,0,0.2,0.1,0.3,0.1l0,0C48.6,25.6,48.5,25.5,48.4,25.5z"/>
		</g>
	</g>
	<g>
		<g>
			<path class="st17" d="M50.5,26.2l0.1,0.1C50.6,26.3,50.6,26.2,50.5,26.2z"/>
		</g>
	</g>
	<g>
		<g>
			<path class="st62" d="M48.7,22.2c0.1,0.2-0.1,0.4-0.1,0.6c0.2-0.1,0.4-0.1,0.7-0.2v-0.1c0-0.1,0-0.2,0-0.2s-0.2,0-0.3,0
				C48.8,22.3,48.8,22.3,48.7,22.2z"/>
		</g>
	</g>
	<g>
		<g>
			<path class="st62" d="M48.3,22.2c0,0,0,0.1,0.1,0.1c0.1-0.1,0.2-0.1,0.3-0.1C48.5,22.1,48.4,22.1,48.3,22.2z"/>
		</g>
	</g>
	<g>
		<g>
			<path class="st62" d="M48.6,22.2C48.7,22.2,48.7,22.2,48.6,22.2C48.7,22.2,48.7,22.2,48.6,22.2z"/>
		</g>
	</g>
	<g>
		<g>
			<path class="st62" d="M48.1,22.2L48.1,22.2L48.1,22.2z"/>
		</g>
	</g>
	<g>
		<g>
			<path class="st73" d="M54.7,24.6c-0.3,0-0.1,0.1-0.2,0.2c-0.1,0-0.1-0.1-0.2-0.1c0,0.1,0,0.1,0,0.2c-0.1,0-0.2,0-0.3-0.1
				c-0.1,0.1-0.2,0.1-0.3,0.2c0.2,0,0.3,0.2,0.5,0.1c0.1,0.1,0.1,0.2,0.2,0.2c0.1,0,0.2-0.1,0.2-0.1c0.1,0,0.2,0,0.3,0
				c0-0.1,0.1-0.2,0.1-0.3c0-0.1,0.1-0.2,0.2-0.3h-0.1H55h-0.1l-0.1,0.1c0,0,0,0-0.1,0C54.9,24.7,54.8,24.6,54.7,24.6
				C54.8,24.6,54.8,24.6,54.7,24.6z"/>
		</g>
	</g>
	<g>
		<g>
			<path class="st56" d="M55.3,24.7c-0.2,0.1-0.3,0.2-0.2,0.3c0,0.1,0,0.2-0.1,0.3c-0.2,0-0.3-0.1-0.3,0c-0.1,0-0.1,0.1-0.2,0.1
				c-0.1-0.1-0.1-0.2-0.2-0.2c-0.2,0.1-0.3,0-0.5-0.1l0,0h-0.1l0,0l0,0l0,0h0.1c0.1,0,0.1,0.1,0.2,0.1c0.2,0.1,0.3,0.1,0.5,0.2
				c0.4,0.1,0.6-0.1,0.9-0.2c0.2-0.1,0.3-0.2,0.2-0.3C55.4,24.8,55.5,24.7,55.3,24.7z"/>
		</g>
	</g>
	<g>
		<g>
			<path class="st56" d="M54.8,24.6v0.1c0,0,0,0,0.1,0l0.1-0.1C55,24.6,54.9,24.6,54.8,24.6z"/>
		</g>
	</g>
	<g>
		<g>
			<path class="st56" d="M55.1,24.6C55.1,24.6,55.2,24.7,55.1,24.6C55.2,24.7,55.1,24.6,55.1,24.6z"/>
		</g>
	</g>
	<g>
		<g>
			<path class="st7" d="M62.5,22.4c-0.3,0.1-0.3,0.2-0.2,0.3C62.5,22.6,62.5,22.5,62.5,22.4z"/>
		</g>
	</g>
	<g>
		<g>
			<path class="st26" d="M53.3,25.2c0.1,0,0.1,0.1,0.2,0.1c0.1-0.1,0.1-0.1,0-0.2C53.4,25.1,53.3,25.2,53.3,25.2z"/>
		</g>
	</g>
	<g>
		<g>
			<path class="st5" d="M53.7,25.1C53.7,25.1,53.6,25.1,53.7,25.1C53.6,25.1,53.7,25.1,53.7,25.1z"/>
		</g>
	</g>
	<g>
		<g>
			<path class="st5" d="M53.6,25.1L53.6,25.1C53.6,25,53.5,25,53.6,25.1C53.5,25.1,53.6,25.1,53.6,25.1z"/>
		</g>
	</g>
	<g>
		<g>
			<path class="st4" d="M59.3,23.2c0.1-0.1,0.2-0.1,0.3-0.2C59.3,23,59.2,23.1,59.3,23.2z"/>
		</g>
	</g>
	<g>
		<g>
			<path class="st4" d="M59,23.3c0.1,0,0.1-0.1,0.2-0.1c-0.1,0-0.2,0-0.2,0C59,23.3,59,23.3,59,23.3z"/>
		</g>
	</g>
	<g>
		<g>
			<path class="st32" d="M49,25.7L49,25.7L49,25.7z"/>
		</g>
	</g>
	<g>
		<g>
			<path class="st74" d="M57,22.9c-0.1-0.1-0.1-0.1-0.2-0.2c-0.1,0-0.2,0.1-0.3,0.1c0,0-0.1,0-0.1-0.1c-0.1,0.1-0.1,0.2-0.2,0.3
				c-0.1,0-0.2,0-0.3,0c0,0.1-0.1,0.1-0.1,0.2c-0.2,0-0.4,0-0.5,0.1c-0.2,0-0.2,0-0.4,0l0,0c0,0.1,0,0.1,0,0.2l-0.1,0.1l0.1,0.1
				c0.1,0,0.2,0,0.3-0.1c0.5-0.2,1.1-0.3,1.5-0.5C56.9,23,57,23,57,22.9C57,23,57,23,57,22.9z"/>
		</g>
	</g>
	<g>
		<g>
			<path class="st75" d="M55,23.2c0.1,0,0.2,0.1,0.4,0c0.2,0,0.3,0,0.5-0.1c0,0,0.1-0.1,0.1-0.2c0.1,0,0.2,0,0.3,0
				c0.1-0.1,0.1-0.2,0.2-0.3l0,0c-0.3,0-0.5-0.1-0.7-0.2l-0.1,0.1c-0.2,0-0.3,0-0.5,0c0.2,0.1,0.2,0.2-0.1,0.3
				C55,23,55,23.1,55,23.2z"/>
		</g>
	</g>
	<g>
		<g>
			<path class="st74" d="M55.8,22.6c0.2,0.1,0.4,0.2,0.7,0.2c0,0,0.1,0,0.1-0.1c-0.3-0.1-0.6-0.1-0.8-0.3h-0.1
				C55.7,22.5,55.8,22.5,55.8,22.6z"/>
		</g>
	</g>
	<g>
		<g>
			<path class="st20" d="M55.1,23.4c0-0.1,0-0.1,0-0.2C54.9,23.3,54.9,23.4,55.1,23.4z"/>
		</g>
	</g>
	<g>
		<g>
			<path class="st34" d="M63.1,24.5c-0.2,0.1-0.2,0.1-0.2,0.3C63.1,24.6,63.1,24.6,63.1,24.5L63.1,24.5z"/>
		</g>
	</g>
	<g>
		<g>
			<path class="st76" d="M61.3,24.5c0-0.2,0-0.3,0-0.5s0-0.2-0.4-0.2c-0.2,0-0.5,0-0.7,0.1c0,0.1,0,0.1,0,0.2c0,0.2,0.2,0.3,0.7,0.3
				c0.1,0,0.1,0,0.2,0S61.2,24.5,61.3,24.5z"/>
		</g>
	</g>
	<g>
		<g>
			<path class="st20" d="M53.4,23.9L53.4,23.9L53.4,23.9L53.4,23.9z"/>
		</g>
	</g>
	<g>
		<g>
			<path class="st33" d="M48.4,25.5C48.4,25.5,48.3,25.5,48.4,25.5C48.3,25.5,48.4,25.5,48.4,25.5z"/>
		</g>
	</g>
	<g>
		<g>
			<path class="st77" d="M63.4,24.6c0,0.1,0,0.1,0,0.2c0,0,0.1,0,0.2,0.1l0.1-0.1C63.7,24.7,63.6,24.7,63.4,24.6
				C63.5,24.6,63.5,24.6,63.4,24.6z"/>
		</g>
	</g>
	<g>
		<g>
			<path class="st73" d="M53.6,25C53.6,25,53.7,25,53.6,25C53.7,25,53.6,25,53.6,25z"/>
		</g>
	</g>
	<g>
		<g>
			<path class="st72" d="M47.5,24.7c0,0.1,0.1,0.2,0.1,0.2h0.1C47.6,24.8,47.8,24.7,47.5,24.7L47.5,24.7z"/>
		</g>
	</g>
</g>
<g class="st78">
	<path class="st79" d="M19,3.9c-0.1-0.3-0.4-0.5-0.6-0.6c-0.6-0.3-1.4-0.2-2,0c-0.7,0.3-1.3,0.7-1.9,1.2c-0.6,0.5-1.1,1.1-1.6,1.8
		c-0.6,0.6-1.1,1.3-1.6,2c-0.1,0-0.2,0.1-0.3,0.2c0.6,0.1,1.2,0.3,1.8,0.6c0.2,0.1,0.3,0.3,0.5,0.4c0-0.1,0.1-0.1,0.1-0.2
		c0.4-0.6,0.7-1.3,1.2-1.9c0.2-0.3,0.4-0.6,0.7-1c0.1-0.1,0.2-0.3,0.3-0.4c0.1-0.2,0.2-0.3,0.4-0.4c0,0,0.1,0,0,0
		c-0.1,0.2-0.2,0.4-0.3,0.6s-0.2,0.3-0.3,0.5c-0.2,0.4-0.5,0.7-0.7,1.1c-0.4,0.6-0.8,1.3-1.1,2c0.2,0.3,0.4,0.6,0.5,0.9
		c0.1,0.3,0.1,0.7,0.1,1c0,0.4-0.1,0.6-0.3,0.9c-0.1,0.2-0.3,0-0.2-0.1c0.2-0.3,0.2-0.6,0.2-0.9c0-0.6-0.2-1.1-0.5-1.6
		c-0.3,0.6-0.6,1.2-0.9,1.8c-0.3,0.7-0.6,1.4-0.9,2c-0.3,0.7-0.5,1.4-0.8,2.1c0,0.1-0.2,0.1-0.2-0.1c0.2-0.8,0.5-1.6,0.8-2.4
		c0.5-1.3,1.1-2.5,1.7-3.7c-0.5-0.5-1.1-0.8-1.8-0.9c-0.2,0-0.3-0.1-0.5-0.1c-0.8,1.2-1.6,2.4-2.3,3.5c-0.8,1.3-1.6,2.7-2.8,3.7
		c-0.5,0.5-1.1,1-1.8,1.2c-0.6,0.3-1.3,0.4-1.9,0.1c-1.3-0.6-1.1-2.2-0.6-3.3c0.8-1.1,1.8-2.2,2.9-3c1.2-0.9,2.6-1.6,4-2
		c0.8-0.3,1.6-0.4,2.4-0.4c0.5-0.8,1.1-1.5,1.7-2.2c0.5-0.6,1-1.2,1.6-1.8c0.5-0.5,1.1-0.9,1.7-1.2s1.3-0.5,2-0.4
		C18.3,3,18.9,3.3,19,3.9L19,3.9z M10.5,8.7c-1.3,0-2.5,0.5-3.7,1C5.5,10.3,4.3,11,3.3,12c-0.5,0.5-0.9,1-1.3,1.6
		c-0.3,0.5-0.6,1.1-0.6,1.8C1.3,16,1.5,16.6,2.1,17c0.5,0.3,1.2,0.2,1.8,0c0.6-0.3,1.2-0.8,1.7-1.2c0.5-0.5,1-1.1,1.5-1.8
		c0.9-1.3,1.7-2.6,2.5-3.9C9.9,9.7,10.2,9.2,10.5,8.7z"/>
	<path class="st79" d="M22.2,12.6c-0.3,0.3-0.6,0.5-0.9,0.7s-0.7,0.4-1,0.5s-0.6,0.2-1,0.2c-0.2,0-0.5,0-0.7-0.2s-0.1-0.6,0-0.8
		c0-0.3,0.2-0.7-0.2-0.8c-0.2-0.1-0.5,0-0.7,0.1c-0.4,0.1-0.7,0.3-1,0.4c-0.3,0.2-0.6,0.4-0.9,0.6c-0.1,0.1-0.3,0.2-0.4,0.4
		c-0.1,0.1-0.2,0.2-0.3,0.3s-0.3,0-0.2-0.1c0.4-1.1,1.2-2.1,2.1-2.7c0,0,0.1,0,0.1,0.1c-0.4,0.4-0.8,0.8-1.2,1.2
		c-0.2,0.3-0.4,0.6-0.5,0.9c0.1-0.1,0.2-0.2,0.3-0.2c0.3-0.3,0.6-0.5,1-0.7c0.3-0.2,0.7-0.3,1-0.4c0.2-0.1,0.5-0.1,0.7-0.1
		c0.7,0.1,0.4,1,0.3,1.4c0,0.2,0,0.3,0.1,0.4c0.1,0.1,0.3,0.1,0.4,0.1c0.3,0,0.7-0.1,1-0.2c0.3-0.1,0.6-0.3,1-0.5
		c0.3-0.2,0.6-0.4,0.9-0.6C22.1,12.4,22.2,12.5,22.2,12.6z"/>
	<path class="st79" d="M28.5,12.6c-0.3,0.3-0.6,0.5-0.9,0.7s-0.7,0.4-1,0.5S26,14,25.6,14c-0.2,0-0.5,0-0.7-0.2s-0.1-0.6,0-0.8
		c0-0.3,0.2-0.7-0.2-0.8c-0.2-0.1-0.5,0-0.7,0.1c-0.4,0.1-0.7,0.3-1,0.4c-0.3,0.2-0.6,0.4-0.9,0.6c-0.1,0.1-0.3,0.2-0.4,0.4
		c-0.1,0.1-0.2,0.2-0.3,0.3c-0.1,0.1-0.3,0-0.2-0.1c0.4-1.1,1.2-2.1,2.1-2.7c0,0,0.1,0,0.1,0.1c-0.4,0.4-0.8,0.8-1.2,1.2
		c-0.2,0.3-0.4,0.6-0.5,0.9c0.1-0.1,0.2-0.2,0.3-0.2c0.3-0.3,0.6-0.5,1-0.7c0.3-0.2,0.7-0.3,1-0.4c0.2-0.1,0.5-0.1,0.7-0.1
		c0.7,0.1,0.4,1,0.3,1.4c0,0.2,0,0.3,0.1,0.4c0.1,0.1,0.3,0.1,0.4,0.1c0.3,0,0.7-0.1,1-0.2c0.3-0.1,0.6-0.3,1-0.5
		c0.3-0.2,0.6-0.4,0.9-0.6C28.5,12.4,28.6,12.5,28.5,12.6z"/>
	<path class="st79" d="M32.3,11.2c-0.2,0.1-0.5,0.1-0.7,0.1s-0.5,0-0.7,0s-0.5,0-0.7,0s-0.5,0-0.7,0c-0.1,0-0.1-0.1,0-0.1
		c0.2-0.1,0.5-0.1,0.7-0.1s0.5-0.1,0.7-0.1c0.3,0,0.5,0,0.7,0s0.5,0,0.7,0C32.4,11,32.4,11.1,32.3,11.2z"/>
	<path class="st79" d="M48.1,18c-0.9,0.8-2.1,1.3-3.3,1.4c-2.3,0.2-4.5-0.7-6.2-2.2c-1.7-1.4-3-3.2-4-5.1c-0.4,0.9-0.8,1.8-1.1,2.7
		c-0.3,1-0.5,2.1-0.5,3.2c0,0.1-0.2,0.1-0.2,0c-0.1-1.2,0.2-2.4,0.6-3.6c0.3-0.9,0.7-1.8,1.1-2.6c-0.1-0.1-0.1-0.3-0.2-0.4
		c0-0.1,0-0.2,0.1-0.2s0.3,0,0.4,0c0.5-0.9,1-1.8,1.5-2.7c1.2-2,2.4-3.9,3.8-5.7c0-0.1,0.1,0,0.1,0.1C39.5,4,38.8,5,38.1,6.1
		c-1.1,1.7-2.1,3.4-3,5.2c0.6,0,1.1-0.1,1.7-0.2c1.4-0.3,2.8-0.8,4-1.6s2.3-1.8,3.1-3c0.1-0.1,0.2,0,0.1,0.1c-0.5,0.7-1,1.3-1.6,1.9
		c-1,1-2.3,1.8-3.7,2.3c-1.2,0.5-2.5,0.7-3.7,0.7c-0.1,0.1-0.1,0.2-0.2,0.4c0.5,1,1.2,2,1.9,3c1.4,1.8,3.2,3.3,5.3,4
		c2,0.6,4.4,0.4,6-1C48.1,17.7,48.3,17.9,48.1,18z M34.6,11.5L34.6,11.5C34.6,11.4,34.6,11.4,34.6,11.5L34.6,11.5z"/>
	<path class="st79" d="M49.5,13c-0.2,0.1-0.5,0.3-0.7,0.4c-0.2,0.1-0.4,0.2-0.7,0.3c-0.4,0.2-0.8,0.3-1.3,0.3
		c-0.4,0.1-0.8,0.1-1.2-0.1c-0.4-0.2-0.4-0.6-0.3-0.9c-0.3,0.2-0.5,0.4-0.8,0.6c-0.3,0.1-0.5,0.3-0.8,0.3c-0.3,0.1-0.6,0.2-0.9,0.1
		c-0.6-0.2-0.4-0.9-0.1-1.2c0.4-0.4,0.8-0.6,1.3-0.7c0.5-0.1,1.2-0.2,1.5,0.3c0,0,0,0,0,0.1c0.1-0.1,0.2-0.2,0.3-0.3l0,0
		c0.1-0.1,0.3,0.1,0.2,0.2c0,0,0,0.1-0.1,0.1c-0.3,0.3-0.6,0.7-0.6,1.1c0,0.5,0.7,0.4,1,0.4c0.5,0,1-0.2,1.4-0.3
		c0.2-0.1,0.5-0.2,0.7-0.3s0.5-0.2,0.7-0.3C49.6,12.8,49.6,12.9,49.5,13z M45.7,12.4L45.7,12.4c-0.2-0.3-0.5-0.3-0.8-0.3
		s-0.6,0.1-0.8,0.2c-0.4,0.1-0.8,0.4-1,0.7c-0.1,0.2-0.3,0.4-0.2,0.6c0.1,0.2,0.5,0.1,0.7,0.1C44.4,13.5,45.1,12.9,45.7,12.4z"/>
	<path class="st79" d="M55.1,7.7c-0.4,0-0.9,0-1.3,0c-0.5,0-0.9,0.1-1.4,0.1c-0.1,0-0.1,0-0.1,0c-0.7,1-1.3,2.1-1.8,3.2
		c-0.3,0.7-0.5,1.4-0.6,2.1c-0.1,0.6-0.2,1.5,0.5,1.8c0.1,0,0,0.1,0,0.1c-0.3-0.1-0.5-0.4-0.6-0.7c-0.1-0.4-0.1-0.8-0.1-1.2
		c0.2-1.5,0.9-2.9,1.6-4.2c0.2-0.4,0.5-0.7,0.7-1.1c-0.7,0.2-1.4,0.4-2.1,0.6c-0.1,0-0.1-0.1,0-0.1C50.4,8,51.2,7.7,52,7.6
		c0.2-0.2,0.3-0.4,0.4-0.6c0.2-0.3,0.4-0.6,0.7-0.9c0.1-0.1,0.3-0.3,0.4-0.4c0.1-0.1,0.2-0.3,0.4-0.4c0,0,0.1,0,0.1,0.1
		c-0.1,0.2-0.2,0.4-0.3,0.5c-0.2,0.1-0.3,0.3-0.5,0.5c-0.2,0.3-0.5,0.6-0.7,1c0,0.1-0.1,0.1-0.1,0.2c0.4-0.1,0.9-0.1,1.3-0.1
		C54.1,7.5,54.6,7.5,55.1,7.7C55.2,7.5,55.1,7.7,55.1,7.7z"/>
	<path class="st79" d="M57.9,12.2c-0.4,0.7-1,1.3-1.8,1.6c-0.5,0.2-1.3,0.3-1.5-0.2c-0.2-0.4-0.1-1-0.1-1.4c0-0.1,0-0.2,0-0.3
		s0-0.1,0-0.2c-0.1-0.1-0.2-0.1-0.3,0c-0.3,0.2-0.6,0.4-0.9,0.6c-0.5,0.5-1,1.1-1.4,1.7c-0.1,0.1-0.3,0.1-0.2-0.1
		c0.2-0.8,0.5-1.5,0.9-2.2c1.2-2.6,2.8-4.9,4.5-7.3c0.1-0.1,0.2,0,0.1,0.1c-0.4,0.6-0.9,1.3-1.3,1.9c-1.4,2.1-2.8,4.3-3.7,6.7
		c0.3-0.4,0.7-0.8,1.1-1.2c0.3-0.2,0.6-0.4,0.9-0.6c0.2-0.1,0.3-0.1,0.4,0.1c0.1,0.1,0.1,0.2,0.1,0.4c0,0.5-0.1,1,0,1.4
		c0.1,0.2,0.2,0.4,0.4,0.4c0.3,0.1,0.7,0,1-0.2c0.7-0.3,1.1-0.9,1.6-1.4C57.9,12,58,12.1,57.9,12.2z"/>
	<path class="st79" d="M61.7,11.6c0,0.1-0.2,0-0.1-0.1c0.1-0.3-0.3-0.3-0.5-0.3s-0.4,0-0.7,0.1c-1.6,0.4-2.9,1.9-3.5,3.4
		c-0.1,0.1-0.3,0.1-0.2-0.1c0.2-0.7,0.5-1.4,0.9-2c0.2-0.3,0.4-0.6,0.6-0.9c0.2-0.3,0.5-0.6,0.7-0.8c0,0,0.1,0,0.1,0.1
		c-0.2,0.3-0.5,0.6-0.7,0.8c-0.2,0.3-0.4,0.6-0.6,0.9c0,0.1-0.1,0.1-0.1,0.1c0.5-0.7,1.2-1.2,2-1.6c0.4-0.2,0.9-0.3,1.3-0.3
		c0.2,0,0.4,0,0.6,0.1C61.7,11.2,61.7,11.4,61.7,11.6z"/>
	<path class="st79" d="M66.4,12.4c-0.1,0.2-0.4,0.5-0.5,0.6c-0.2,0.2-0.4,0.3-0.7,0.5c-0.4,0.2-0.8,0.4-1.2,0.5
		c-0.4,0.1-0.9,0.1-1.3-0.1c-0.4-0.2-0.6-0.6-0.6-1.1c0.1-0.2,0.2-0.5,0.3-0.7s0.3-0.4,0.5-0.6H63c-0.2,0.5-0.6,1-0.5,1.5
		c0,1,1.3,0.9,1.9,0.7c0.4-0.1,0.7-0.3,1.1-0.5c0.2-0.1,0.3-0.3,0.5-0.4C66,12.6,66.2,12.4,66.4,12.4C66.4,12.3,66.4,12.3,66.4,12.4
		z M63,10.8c0-0.1,0-0.2,0.1-0.2l0.1-0.1c0.1,0,0.1,0,0.2,0c0.1,0.1,0.1,0.2,0,0.3S63.3,11,63.2,11C63.1,10.9,63,10.9,63,10.8z"/>
	<path class="st79" d="M72.7,12.6c-0.3,0.3-0.6,0.5-0.9,0.7s-0.7,0.4-1,0.5s-0.6,0.2-1,0.2c-0.2,0-0.5,0-0.7-0.2s-0.1-0.6,0-0.8
		c0-0.3,0.2-0.7-0.2-0.8c-0.2-0.1-0.5,0-0.7,0.1c-0.4,0.1-0.7,0.3-1,0.4c-0.3,0.2-0.6,0.4-0.9,0.6c-0.1,0.1-0.3,0.2-0.4,0.4
		c-0.1,0.1-0.2,0.2-0.3,0.3c-0.1,0.1-0.3,0-0.2-0.1c0.4-1.1,1.2-2.1,2.1-2.7c0,0,0.1,0,0.1,0.1c-0.4,0.4-0.8,0.8-1.2,1.2
		c-0.2,0.3-0.4,0.6-0.5,0.9c0.1-0.1,0.2-0.2,0.3-0.2c0.3-0.3,0.6-0.5,1-0.7c0.3-0.2,0.7-0.3,1-0.4c0.2-0.1,0.5-0.1,0.7-0.1
		c0.7,0.1,0.4,1,0.3,1.4c0,0.2,0,0.3,0.1,0.4c0.1,0.1,0.3,0.1,0.4,0.1c0.3,0,0.7-0.1,1-0.2c0.3-0.1,0.6-0.3,1-0.5
		c0.3-0.2,0.6-0.4,0.8-0.6C72.7,12.4,72.8,12.5,72.7,12.6z"/>
</g>
<g class="st78">
	<path class="st79" d="M90.6,4.6c-0.6-0.2-1.2-0.3-1.8-0.5C88.2,4,87.6,3.9,87,3.9c-2.2-0.3-4.5-0.2-6.7,0.2
		c-1.1,0.2-2.2,0.5-3.2,0.9c-1.1,0.4-2.1,0.8-3,1.4c-0.1,0-0.1-0.1,0-0.1c0.5-0.3,1.1-0.6,1.6-0.9c0.5-0.4,1.1-0.6,1.7-0.8
		c2.1-0.7,4.4-1.1,6.6-1.2c1.1,0,2.3,0.1,3.4,0.2C88,3.7,88.5,3.8,89,3.9c0.6,0.1,1.1,0.3,1.6,0.5C90.8,4.5,90.7,4.6,90.6,4.6z
		 M83.6,4.2c-0.4,1-0.9,1.9-1.3,2.8c-0.8,1.6-1.6,3.3-2.4,4.9c-0.4,0.8-0.8,1.6-1.2,2.5c-0.2,0.4-0.4,0.8-0.6,1.2s-0.4,0.8-0.7,1.2
		c-0.1,0.1-0.2,0.1-0.2-0.1c0.1-0.5,0.4-0.9,0.6-1.4c0.2-0.4,0.5-0.9,0.7-1.4c0.8-1.6,1.6-3.2,2.4-4.9c0.4-0.8,0.8-1.6,1.2-2.4
		C82.6,5.8,83,5,83.6,4.2C83.5,4.1,83.6,4.2,83.6,4.2z"/>
	<path class="st79" d="M87.9,12.4c-0.1,0.2-0.4,0.5-0.5,0.6c-0.2,0.2-0.4,0.3-0.7,0.5c-0.4,0.2-0.8,0.4-1.2,0.5
		c-0.4,0.1-0.9,0.1-1.3-0.1c-0.4-0.2-0.6-0.6-0.6-1.1c0.1-0.2,0.2-0.5,0.3-0.7c0.1-0.2,0.3-0.4,0.5-0.6h0.1c-0.2,0.5-0.6,1-0.5,1.5
		c0,1,1.3,0.9,1.9,0.7c0.4-0.1,0.7-0.3,1.1-0.5c0.2-0.1,0.3-0.3,0.5-0.4C87.5,12.6,87.6,12.4,87.9,12.4
		C87.9,12.3,87.9,12.3,87.9,12.4z M84.5,10.8c0-0.1,0-0.2,0.1-0.2l0.1-0.1c0.1,0,0.1,0,0.2,0c0.1,0.1,0.1,0.2,0,0.3S84.8,11,84.7,11
		C84.6,10.9,84.5,10.9,84.5,10.8z"/>
	<path class="st79" d="M91.9,12.1c-0.6,0.1-1.3,0.1-1.8,0.2c-0.5,0.2-1,0.4-1.5,0.7c-0.2,0.1-0.3,0.2-0.5,0.3c0,0.2,0,0.3,0,0.5
		c-0.1,0.4-0.2,0.8-0.6,1c-0.2,0.1-0.4,0.1-0.6,0c-0.1-0.1-0.2-0.3-0.1-0.5c0.1-0.4,0.5-0.7,0.8-1c0.1-0.1,0.1-0.1,0.2-0.2
		c0-0.4-0.1-0.8,0-1.2c0.2-0.7,0.8-1.4,1.6-1.5c0.3-0.1,0.9-0.1,1,0.3c0.1,0.3-0.1,0.6-0.4,0.8c0,0-0.1,0,0-0.1
		c0.1-0.2,0.2-0.3,0.2-0.5c0-0.3-0.3-0.3-0.5-0.3c-0.5,0-0.9,0.2-1.2,0.6c-0.3,0.3-0.5,0.7-0.5,1.2c0,0.2,0,0.4,0,0.7
		c0.3-0.2,0.5-0.3,0.8-0.5c0.9-0.5,1.9-0.7,2.9-0.5C92,12,92,12.1,91.9,12.1z M87.9,13.5c-0.1,0.1-0.3,0.2-0.4,0.4
		c-0.1,0.1-0.3,0.3-0.3,0.5c0,0.1,0,0.2,0.1,0.3c0.1,0,0.2,0,0.3-0.1C87.8,14.3,87.9,13.8,87.9,13.5z"/>
	<path class="st79" d="M95.8,12.1c-0.6,0.1-1.3,0.1-1.8,0.2c-0.5,0.2-1,0.4-1.5,0.7c-0.2,0.1-0.3,0.2-0.5,0.3c0,0.2,0,0.3,0,0.5
		c-0.1,0.4-0.2,0.8-0.6,1c-0.2,0.1-0.4,0.1-0.6,0c-0.1-0.1-0.2-0.3-0.1-0.5c0.1-0.4,0.5-0.7,0.8-1c0.1-0.1,0.1-0.1,0.2-0.2
		c0-0.4-0.1-0.8,0-1.2c0.2-0.7,0.8-1.4,1.6-1.5c0.3-0.1,0.9-0.1,1,0.3c0.1,0.3-0.1,0.6-0.4,0.8c0,0-0.1,0,0-0.1
		c0.1-0.2,0.2-0.3,0.2-0.5c0-0.3-0.3-0.3-0.5-0.3c-0.5,0-0.9,0.2-1.2,0.6c-0.3,0.3-0.5,0.7-0.5,1.2c0,0.2,0,0.4,0,0.7
		c0.3-0.2,0.5-0.3,0.8-0.5c0.9-0.5,1.9-0.7,2.9-0.5C95.9,12,95.9,12.1,95.8,12.1z M91.8,13.5c-0.1,0.1-0.3,0.2-0.4,0.4
		s-0.3,0.3-0.3,0.6c0,0.1,0,0.2,0.1,0.3c0.1,0,0.2,0,0.3-0.1C91.7,14.3,91.8,13.8,91.8,13.5z"/>
	<path class="st79" d="M99.5,12.8c-0.2,0.2-0.4,0.3-0.6,0.5c-0.2,0.1-0.4,0.2-0.7,0.3c-0.4,0.2-0.9,0.3-1.4,0.4
		c-0.5,0.1-1.2,0.1-1.6-0.3c-0.2-0.2-0.3-0.5-0.2-0.8c0.1-0.4,0.5-0.7,0.8-0.9c0.4-0.2,0.8-0.4,1.3-0.3c0.4,0.1,0.4,0.6,0.1,0.8
		c-0.3,0.3-0.6,0.4-1,0.4c-0.3,0-0.6,0-0.9-0.2c-0.1,0.2-0.2,0.5,0,0.7c0.1,0.2,0.4,0.2,0.6,0.3c0.5,0.1,1.1,0,1.6-0.1
		c0.3-0.1,0.7-0.2,1-0.4s0.6-0.4,1-0.5C99.5,12.7,99.5,12.8,99.5,12.8z M95.3,12.7L95.3,12.7c0.3,0.1,0.6,0.1,0.9,0.1
		c0.3-0.1,0.7-0.2,0.8-0.5c0-0.1,0.1-0.2-0.1-0.2c-0.1,0-0.2,0-0.3,0c-0.2,0-0.4,0.1-0.5,0.1C95.8,12.3,95.5,12.5,95.3,12.7z"/>
	<path class="st79" d="M106.2,12.6c-0.3,0.3-0.6,0.5-0.9,0.7s-0.7,0.4-1,0.5s-0.6,0.2-1,0.2c-0.2,0-0.5,0-0.7-0.2s-0.1-0.6,0-0.8
		c0-0.3,0.2-0.7-0.2-0.8c-0.2-0.1-0.5,0-0.7,0.1c-0.4,0.1-0.7,0.3-1,0.4c-0.3,0.2-0.6,0.4-0.9,0.6c-0.1,0.1-0.3,0.2-0.4,0.4
		c-0.1,0.1-0.2,0.2-0.3,0.3c-0.1,0.1-0.3,0-0.2-0.1c0.4-1.1,1.2-2.1,2.1-2.7c0,0,0.1,0,0.1,0.1c-0.4,0.4-0.8,0.8-1.2,1.2
		c-0.2,0.3-0.4,0.6-0.5,0.9c0.1-0.1,0.2-0.2,0.3-0.2c0.3-0.3,0.6-0.5,1-0.7c0.3-0.2,0.7-0.3,1-0.4c0.2-0.1,0.5-0.1,0.7-0.1
		c0.7,0.1,0.4,1,0.3,1.4c0,0.2,0,0.3,0.1,0.4c0.1,0.1,0.3,0.1,0.4,0.1c0.3,0,0.7-0.1,1-0.2c0.3-0.1,0.6-0.3,1-0.5
		c0.3-0.2,0.6-0.4,0.8-0.6C106.2,12.4,106.2,12.5,106.2,12.6z"/>
</g>
</svg>
